
<svg version="1.1" id="icon-3" xmlns="http://www.w3.org/2000/svg" xmlns:xlink="http://www.w3.org/1999/xlink" x="0px" y="0px"
	 width="94px" height="94px" viewBox="0 0 94 94" enable-background="new 0 0 94 94" xml:space="preserve">
<path fill="#27AD60" d="M85.7,24h-35v-3c0-2.8-2.2-5-5-5h-31V9.9c2.3-0.5,4-2.5,4-4.9c0-2.8-2.2-5-5-5s-5,2.2-5,5
	c0,2.4,1.7,4.4,4,4.9V93c0,0.6,0.4,1,1,1s1-0.4,1-1V58h31c1.7,0,3,1.3,3,3v4c0,0.6,0.4,1,1,1h36c0.6,0,1-0.4,1-1V25
	C86.7,24.4,86.2,24,85.7,24z M10.7,5c0-1.7,1.3-3,3-3s3,1.3,3,3s-1.3,3-3,3S10.7,6.7,10.7,5z M45.7,56h-31V18h31c1.7,0,3,1.3,3,3v36
	v0C47.8,56.4,46.8,56,45.7,56z M84.7,64h-34v-3v-4V26h34V64z"/>
</svg>
