
<svg version="1.1" id="icon-1" xmlns="http://www.w3.org/2000/svg" xmlns:xlink="http://www.w3.org/1999/xlink" x="0px" y="0px"
	 width="94px" height="94px" viewBox="0 0 94 94" enable-background="new 0 0 94 94" xml:space="preserve">
<g>
	<path fill="#27AD60" d="M67,0H7C5.3,0,4,1.3,4,3v84c0,1.7,1.3,3,3,3h42c0.6,0,1-0.4,1-1s-0.4-1-1-1H7c-0.6,0-1-0.4-1-1V3
		c0-0.6,0.4-1,1-1h60c0.6,0,1,0.4,1,1v22c0,0.6,0.4,1,1,1s1-0.4,1-1V3C70,1.3,68.6,0,67,0z"/>
	<path fill="#27AD60" d="M37.7,9.7c0.2-0.2,0.3-0.4,0.3-0.7c0-0.3-0.1-0.5-0.3-0.7c-0.4-0.4-1-0.4-1.4,0c-0.2,0.2-0.3,0.4-0.3,0.7
		c0,0.3,0.1,0.5,0.3,0.7c0.2,0.2,0.4,0.3,0.7,0.3C37.2,10,37.5,9.9,37.7,9.7z"/>
	<path fill="#27AD60" d="M32,77c0,2.8,2.2,5,5,5s5-2.2,5-5s-2.2-5-5-5S32,74.2,32,77z M40,77c0,1.7-1.3,3-3,3s-3-1.3-3-3s1.3-3,3-3
		S40,75.3,40,77z"/>
	<path fill="#27AD60" d="M61,16H13c-0.6,0-1,0.4-1,1v48c0,0.6,0.4,1,1,1h36c0.6,0,1-0.4,1-1s-0.4-1-1-1H14V18h46v7c0,0.6,0.4,1,1,1
		s1-0.4,1-1v-8C62,16.4,61.5,16,61,16z"/>
</g>
<g>
	<g>
		<g>
			<path fill="#27AD60" d="M87,94H51c-1.7,0-3-1.3-3-3V27c0-1.7,1.3-3,3-3h36c1.7,0,3,1.3,3,3v64C90,92.7,88.6,94,87,94z M51,26
				c-0.6,0-1,0.4-1,1v64c0,0.6,0.4,1,1,1h36c0.6,0,1-0.4,1-1V27c0-0.6-0.4-1-1-1H51z"/>
		</g>
		<g>
			<path fill="#27AD60" d="M69,34c-0.3,0-0.5-0.1-0.7-0.3c-0.2-0.2-0.3-0.4-0.3-0.7c0-0.3,0.1-0.5,0.3-0.7c0.4-0.4,1-0.4,1.4,0
				c0.2,0.2,0.3,0.4,0.3,0.7c0,0.3-0.1,0.5-0.3,0.7C69.5,33.9,69.2,34,69,34z"/>
		</g>
		<g>
			<path fill="#27AD60" d="M81,78H57c-0.6,0-1-0.4-1-1V41c0-0.6,0.4-1,1-1h24c0.6,0,1,0.4,1,1v36C82,77.6,81.5,78,81,78z M58,76h22
				V42H58V76z"/>
		</g>
	</g>
	
		<line fill="none" stroke="#27AD60" stroke-width="2" stroke-linecap="round" stroke-linejoin="round" stroke-miterlimit="10" x1="61" y1="33" x2="61" y2="33"/>
	
		<line fill="none" stroke="#27AD60" stroke-width="2" stroke-linecap="round" stroke-linejoin="round" stroke-miterlimit="10" x1="69" y1="85" x2="69" y2="85"/>
</g>
</svg>
