<?xml version="1.0" encoding="utf-8"?>
<!-- Generator: Adobe Illustrator 16.0.0, SVG Export Plug-In . SVG Version: 6.00 Build 0)  -->
<!DOCTYPE svg PUBLIC "-//W3C//DTD SVG 1.1//EN" "http://www.w3.org/Graphics/SVG/1.1/DTD/svg11.dtd">
<svg version="1.1" xmlns="http://www.w3.org/2000/svg" xmlns:xlink="http://www.w3.org/1999/xlink" x="0px" y="0px" width="94px"
	 height="94px" viewBox="0 0 94 94" enable-background="new 0 0 94 94" xml:space="preserve">
<g id="icon-1">
	<g>
		<path fill="#27AD60" d="M67,0H7C5.3,0,4,1.3,4,3v84c0,1.7,1.3,3,3,3h42c0.6,0,1-0.4,1-1s-0.4-1-1-1H7c-0.6,0-1-0.4-1-1V3
			c0-0.6,0.4-1,1-1h60c0.6,0,1,0.4,1,1v22c0,0.6,0.4,1,1,1s1-0.4,1-1V3C70,1.3,68.6,0,67,0z"/>
		<path fill="#27AD60" d="M37.7,9.7c0.2-0.2,0.3-0.4,0.3-0.7c0-0.3-0.1-0.5-0.3-0.7c-0.4-0.4-1-0.4-1.4,0c-0.2,0.2-0.3,0.4-0.3,0.7
			c0,0.3,0.1,0.5,0.3,0.7c0.2,0.2,0.4,0.3,0.7,0.3C37.2,10,37.5,9.9,37.7,9.7z"/>
		<path fill="#27AD60" d="M32,77c0,2.8,2.2,5,5,5s5-2.2,5-5s-2.2-5-5-5S32,74.2,32,77z M40,77c0,1.7-1.3,3-3,3s-3-1.3-3-3s1.3-3,3-3
			S40,75.3,40,77z"/>
		<path fill="#27AD60" d="M61,16H13c-0.6,0-1,0.4-1,1v48c0,0.6,0.4,1,1,1h36c0.6,0,1-0.4,1-1s-0.4-1-1-1H14V18h46v7c0,0.6,0.4,1,1,1
			s1-0.4,1-1v-8C62,16.4,61.5,16,61,16z"/>
	</g>
	<g>
		<g>
			<g>
				<path fill="#27AD60" d="M87,94H51c-1.7,0-3-1.3-3-3V27c0-1.7,1.3-3,3-3h36c1.7,0,3,1.3,3,3v64C90,92.7,88.6,94,87,94z M51,26
					c-0.6,0-1,0.4-1,1v64c0,0.6,0.4,1,1,1h36c0.6,0,1-0.4,1-1V27c0-0.6-0.4-1-1-1H51z"/>
			</g>
			<g>
				<path fill="#27AD60" d="M69,34c-0.3,0-0.5-0.1-0.7-0.3c-0.2-0.2-0.3-0.4-0.3-0.7c0-0.3,0.1-0.5,0.3-0.7c0.4-0.4,1-0.4,1.4,0
					c0.2,0.2,0.3,0.4,0.3,0.7c0,0.3-0.1,0.5-0.3,0.7C69.5,33.9,69.2,34,69,34z"/>
			</g>
			<g>
				<path fill="#27AD60" d="M81,78H57c-0.6,0-1-0.4-1-1V41c0-0.6,0.4-1,1-1h24c0.6,0,1,0.4,1,1v36C82,77.6,81.5,78,81,78z M58,76h22
					V42H58V76z"/>
			</g>
		</g>
		
			<line fill="none" stroke="#27AD60" stroke-width="2" stroke-linecap="round" stroke-linejoin="round" stroke-miterlimit="10" x1="61" y1="33" x2="61" y2="33"/>
		
			<line fill="none" stroke="#27AD60" stroke-width="2" stroke-linecap="round" stroke-linejoin="round" stroke-miterlimit="10" x1="69" y1="85" x2="69" y2="85"/>
	</g>
</g>
<g id="icon-2" display="none">
	<g display="inline">
		<path fill="#27AD60" d="M11,56.7c1.3,0,2.6-0.5,3.5-1.5c0.9-0.9,1.5-2.2,1.5-3.5c0-1.1-0.4-2.1-1-3c0,0,0,0,0,0
			c0.3,0,0.5-0.1,0.7-0.3l16-16c0.2-0.2,0.3-0.5,0.3-0.7c0.9,0.7,1.9,1,3,1c1.3,0,2.6-0.5,3.5-1.5c0.1-0.1,0.3-0.3,0.4-0.5l15.3,7.6
			c-0.4,1.7,0,3.5,1.3,4.8c0.9,0.9,2.2,1.5,3.5,1.5s2.6-0.5,3.5-1.5c1.8-1.8,1.9-4.6,0.4-6.5c0,0,0,0,0,0c0.3,0,0.6-0.1,0.8-0.4
			l16-20c0.2-0.2,0.2-0.4,0.2-0.7c0.9,0.7,1.9,1,3,1c1.3,0,2.6-0.5,3.5-1.5c1.9-1.9,1.9-5.1,0-7.1c-0.9-0.9-2.2-1.5-3.5-1.5
			c-1.3,0-2.6,0.5-3.5,1.5c-1.8,1.8-1.9,4.6-0.4,6.6c-0.3,0-0.6,0.1-0.8,0.4l-16,20C62,35.2,62,35.5,62,35.7c-0.9-0.7-1.9-1-3-1
			c-1.3,0-2.6,0.5-3.5,1.5c-0.1,0.1-0.3,0.3-0.4,0.5L39.8,29c0.4-1.7,0-3.5-1.3-4.8c-0.9-0.9-2.2-1.5-3.5-1.5
			c-1.3,0-2.6,0.5-3.5,1.5c-1.8,1.8-1.9,4.6-0.4,6.5c-0.3,0-0.5,0.1-0.7,0.3l-16,16c-0.2,0.2-0.3,0.5-0.3,0.7c-0.9-0.7-1.9-1-3-1
			c-1.3,0-2.6,0.5-3.5,1.5c-1.9,1.9-1.9,5.1,0,7.1C8.4,56.1,9.6,56.7,11,56.7z M80.8,9.5C81.4,9,82.2,8.7,83,8.7
			c0.8,0,1.6,0.3,2.1,0.9c1.2,1.2,1.2,3.1,0,4.2c-1.1,1.1-3.1,1.1-4.2,0C79.7,12.6,79.7,10.7,80.8,9.5z M56.8,37.5
			c0.6-0.6,1.3-0.9,2.1-0.9c0.8,0,1.6,0.3,2.1,0.9c1.2,1.2,1.2,3.1,0,4.2c-1.1,1.1-3.1,1.1-4.2,0C55.7,40.6,55.7,38.7,56.8,37.5z
			 M32.8,25.5c0.6-0.6,1.3-0.9,2.1-0.9c0.8,0,1.6,0.3,2.1,0.9c1.2,1.2,1.2,3.1,0,4.2c-1.1,1.1-3.1,1.1-4.2,0
			C31.7,28.6,31.7,26.7,32.8,25.5z M8.8,49.5c0.6-0.6,1.3-0.9,2.1-0.9c0.8,0,1.6,0.3,2.1,0.9c0.6,0.6,0.9,1.3,0.9,2.1
			s-0.3,1.6-0.9,2.1c-0.6,0.6-1.3,0.9-2.1,0.9c-0.8,0-1.6-0.3-2.1-0.9C7.7,52.6,7.7,50.7,8.8,49.5z"/>
		<path fill="#27AD60" d="M93,82.7h-3v-55c0-0.6-0.4-1-1-1H77c-0.6,0-1,0.4-1,1v55H66v-27c0-0.6-0.4-1-1-1H53c-0.6,0-1,0.4-1,1v27
			H42v-39c0-0.6-0.4-1-1-1H29c-0.6,0-1,0.4-1,1v39H18v-15c0-0.6-0.4-1-1-1H5c-0.6,0-1,0.4-1,1v15H1c-0.6,0-1,0.4-1,1s0.4,1,1,1h4h12
			h12h12h12h12h12h12h4c0.6,0,1-0.4,1-1S93.5,82.7,93,82.7z M6,82.7v-14h10v14H6z M30,82.7v-38h10v38H30z M54,82.7v-26h10v26H54z
			 M78,82.7v-54h10v54H78z"/>
	</g>
</g>
<g id="icon-3" display="none">
	<path display="inline" fill="#27AD60" d="M85.7,24h-35v-3c0-2.8-2.2-5-5-5h-31V9.9c2.3-0.5,4-2.5,4-4.9c0-2.8-2.2-5-5-5s-5,2.2-5,5
		c0,2.4,1.7,4.4,4,4.9V93c0,0.6,0.4,1,1,1s1-0.4,1-1V58h31c1.7,0,3,1.3,3,3v4c0,0.6,0.4,1,1,1h36c0.6,0,1-0.4,1-1V25
		C86.7,24.4,86.2,24,85.7,24z M10.7,5c0-1.7,1.3-3,3-3s3,1.3,3,3s-1.3,3-3,3S10.7,6.7,10.7,5z M45.7,56h-31V18h31c1.7,0,3,1.3,3,3
		v36v0C47.8,56.4,46.8,56,45.7,56z M84.7,64h-34v-3v-4V26h34V64z"/>
</g>
</svg>
