
<svg version="1.1" id="icon-2" xmlns="http://www.w3.org/2000/svg" xmlns:xlink="http://www.w3.org/1999/xlink" x="0px" y="0px"
	 width="94px" height="94px" viewBox="0 0 94 94" enable-background="new 0 0 94 94" xml:space="preserve">
<g>
	<path fill="#27AD60" d="M11,56.7c1.3,0,2.6-0.5,3.5-1.5c0.9-0.9,1.5-2.2,1.5-3.5c0-1.1-0.4-2.1-1-3c0,0,0,0,0,0
		c0.3,0,0.5-0.1,0.7-0.3l16-16c0.2-0.2,0.3-0.5,0.3-0.7c0.9,0.7,1.9,1,3,1c1.3,0,2.6-0.5,3.5-1.5c0.1-0.1,0.3-0.3,0.4-0.5l15.3,7.6
		c-0.4,1.7,0,3.5,1.3,4.8c0.9,0.9,2.2,1.5,3.5,1.5s2.6-0.5,3.5-1.5c1.8-1.8,1.9-4.6,0.4-6.5c0,0,0,0,0,0c0.3,0,0.6-0.1,0.8-0.4
		l16-20c0.2-0.2,0.2-0.4,0.2-0.7c0.9,0.7,1.9,1,3,1c1.3,0,2.6-0.5,3.5-1.5c1.9-1.9,1.9-5.1,0-7.1c-0.9-0.9-2.2-1.5-3.5-1.5
		c-1.3,0-2.6,0.5-3.5,1.5c-1.8,1.8-1.9,4.6-0.4,6.6c-0.3,0-0.6,0.1-0.8,0.4l-16,20C62,35.2,62,35.5,62,35.7c-0.9-0.7-1.9-1-3-1
		c-1.3,0-2.6,0.5-3.5,1.5c-0.1,0.1-0.3,0.3-0.4,0.5L39.8,29c0.4-1.7,0-3.5-1.3-4.8c-0.9-0.9-2.2-1.5-3.5-1.5c-1.3,0-2.6,0.5-3.5,1.5
		c-1.8,1.8-1.9,4.6-0.4,6.5c-0.3,0-0.5,0.1-0.7,0.3l-16,16c-0.2,0.2-0.3,0.5-0.3,0.7c-0.9-0.7-1.9-1-3-1c-1.3,0-2.6,0.5-3.5,1.5
		c-1.9,1.9-1.9,5.1,0,7.1C8.4,56.1,9.6,56.7,11,56.7z M80.8,9.5C81.4,9,82.2,8.7,83,8.7c0.8,0,1.6,0.3,2.1,0.9
		c1.2,1.2,1.2,3.1,0,4.2c-1.1,1.1-3.1,1.1-4.2,0C79.7,12.6,79.7,10.7,80.8,9.5z M56.8,37.5c0.6-0.6,1.3-0.9,2.1-0.9
		c0.8,0,1.6,0.3,2.1,0.9c1.2,1.2,1.2,3.1,0,4.2c-1.1,1.1-3.1,1.1-4.2,0C55.7,40.6,55.7,38.7,56.8,37.5z M32.8,25.5
		c0.6-0.6,1.3-0.9,2.1-0.9c0.8,0,1.6,0.3,2.1,0.9c1.2,1.2,1.2,3.1,0,4.2c-1.1,1.1-3.1,1.1-4.2,0C31.7,28.6,31.7,26.7,32.8,25.5z
		 M8.8,49.5c0.6-0.6,1.3-0.9,2.1-0.9c0.8,0,1.6,0.3,2.1,0.9c0.6,0.6,0.9,1.3,0.9,2.1s-0.3,1.6-0.9,2.1c-0.6,0.6-1.3,0.9-2.1,0.9
		c-0.8,0-1.6-0.3-2.1-0.9C7.7,52.6,7.7,50.7,8.8,49.5z"/>
	<path fill="#27AD60" d="M93,82.7h-3v-55c0-0.6-0.4-1-1-1H77c-0.6,0-1,0.4-1,1v55H66v-27c0-0.6-0.4-1-1-1H53c-0.6,0-1,0.4-1,1v27H42
		v-39c0-0.6-0.4-1-1-1H29c-0.6,0-1,0.4-1,1v39H18v-15c0-0.6-0.4-1-1-1H5c-0.6,0-1,0.4-1,1v15H1c-0.6,0-1,0.4-1,1s0.4,1,1,1h4h12h12
		h12h12h12h12h12h4c0.6,0,1-0.4,1-1S93.5,82.7,93,82.7z M6,82.7v-14h10v14H6z M30,82.7v-38h10v38H30z M54,82.7v-26h10v26H54z
		 M78,82.7v-54h10v54H78z"/>
</g>
</svg>
