<?xml version="1.0" encoding="utf-8"?>
<!-- Generator: Adobe Illustrator 15.0.0, SVG Export Plug-In . SVG Version: 6.00 Build 0)  -->
<!DOCTYPE svg PUBLIC "-//W3C//DTD SVG 1.1//EN" "http://www.w3.org/Graphics/SVG/1.1/DTD/svg11.dtd">
<svg version="1.1" id="Layer_1" xmlns="http://www.w3.org/2000/svg" xmlns:xlink="http://www.w3.org/1999/xlink" x="0px" y="0px"
	 width="1920px" height="361.5px" viewBox="0 718.5 1920 361.5" enable-background="new 0 718.5 1920 361.5" xml:space="preserve">
<g>
	
		<linearGradient id="SVGID_1_" gradientUnits="userSpaceOnUse" x1="948.6448" y1="-14.0957" x2="950.6447" y2="261.9047" gradientTransform="matrix(1 0 0 -1 8.3999 1056.1602)">
		<stop  offset="0" style="stop-color:#FFFFFF"/>
		<stop  offset="1" style="stop-color:#FFFFFF;stop-opacity:0.7"/>
	</linearGradient>
	<path fill="url(#SVGID_1_)" d="M1989.78,735.001l-275.688,196.826l-300.619-135.75l-302.637,100.378l-302.637-60.228
		l-302.637,78.39L202.926,776.003L-75.5,788.429V1080H1987.78c0,0,8.102-284.354,5.001-296.997
		C1992.628,782.378,1989.78,735.001,1989.78,735.001z"/>
	<path fill="none" stroke="#27AE60" stroke-width="3" stroke-miterlimit="10" d="M1989.78,735.001l-275.688,196.826l-300.619-135.75
		l-302.637,100.378l-302.637-60.228l-302.637,78.39L202.926,776.003L-75.5,788.429"/>
</g>
<g>
	<path fill="#FFFFFF" d="M808.051,844.059c-4.411,0-8-3.589-8-8c0-4.41,3.589-8,8-8s8,3.59,8,8
		C816.051,840.47,812.462,844.059,808.051,844.059z"/>
	<path fill="#27AE60" d="M808.051,829.559c3.59,0,6.5,2.91,6.5,6.5c0,3.591-2.91,6.5-6.5,6.5s-6.5-2.909-6.5-6.5
		C801.551,832.469,804.461,829.559,808.051,829.559 M808.051,826.559c-5.238,0-9.5,4.263-9.5,9.5c0,5.238,4.262,9.5,9.5,9.5
		c5.237,0,9.5-4.262,9.5-9.5C817.551,830.821,813.289,826.559,808.051,826.559L808.051,826.559z"/>
</g>
<g>
	<path fill="#FFFFFF" d="M1110.676,904.232c-4.411,0-8-3.59-8-8c0-4.411,3.589-8,8-8s8,3.589,8,8
		C1118.676,900.643,1115.087,904.232,1110.676,904.232z"/>
	<path fill="#27AE60" d="M1110.676,889.732c3.59,0,6.5,2.909,6.5,6.5c0,3.59-2.91,6.5-6.5,6.5s-6.5-2.91-6.5-6.5
		C1104.176,892.642,1107.086,889.732,1110.676,889.732 M1110.676,886.732c-5.238,0-9.5,4.262-9.5,9.5c0,5.237,4.262,9.5,9.5,9.5
		s9.5-4.263,9.5-9.5C1120.176,890.994,1115.913,886.732,1110.676,886.732L1110.676,886.732z"/>
</g>
<g>
	<path fill="#FFFFFF" d="M1413.666,804.007c-4.41,0-8-3.589-8-8s3.59-8,8-8c4.411,0,8,3.589,8,8S1418.077,804.007,1413.666,804.007z
		"/>
	<path fill="#27AE60" d="M1413.666,789.507c3.591,0,6.5,2.91,6.5,6.5s-2.909,6.5-6.5,6.5c-3.59,0-6.5-2.91-6.5-6.5
		S1410.076,789.507,1413.666,789.507 M1413.666,786.507c-5.237,0-9.5,4.263-9.5,9.5c0,5.238,4.263,9.5,9.5,9.5
		c5.238,0,9.5-4.262,9.5-9.5C1423.166,790.77,1418.905,786.507,1413.666,786.507L1413.666,786.507z"/>
</g>
<g>
	<path fill="#FFFFFF" d="M1713.938,939.828c-4.411,0-8-3.589-8-8s3.589-8,8-8s8,3.589,8,8S1718.35,939.828,1713.938,939.828z"/>
	<path fill="#27AE60" d="M1713.938,925.328c3.59,0,6.5,2.91,6.5,6.5s-2.91,6.5-6.5,6.5s-6.5-2.91-6.5-6.5
		S1710.349,925.328,1713.938,925.328 M1713.938,922.328c-5.238,0-9.5,4.262-9.5,9.5s4.262,9.5,9.5,9.5s9.5-4.262,9.5-9.5
		S1719.177,922.328,1713.938,922.328L1713.938,922.328z"/>
</g>
<g>
	<path fill="#FFFFFF" d="M202.76,783.808c-4.411,0-8-3.589-8-8s3.589-8,8-8s8,3.589,8,8S207.171,783.808,202.76,783.808z"/>
	<path fill="#27AE60" d="M202.76,769.308c3.59,0,6.5,2.91,6.5,6.5c0,3.591-2.91,6.5-6.5,6.5s-6.5-2.909-6.5-6.5
		C196.26,772.218,199.17,769.308,202.76,769.308 M202.76,766.308c-5.238,0-9.5,4.263-9.5,9.5c0,5.238,4.262,9.5,9.5,9.5
		s9.5-4.262,9.5-9.5C212.26,770.57,207.998,766.308,202.76,766.308L202.76,766.308z"/>
</g>
<g>
	<path fill="#FFFFFF" d="M505.524,922.435c-4.411,0-8-3.589-8-8c0-4.41,3.589-8,8-8s8,3.59,8,8
		C513.524,918.846,509.936,922.435,505.524,922.435z"/>
	<path fill="#27AE60" d="M505.524,907.935c3.59,0,6.5,2.91,6.5,6.5c0,3.591-2.91,6.5-6.5,6.5s-6.5-2.909-6.5-6.5
		C499.024,910.845,501.935,907.935,505.524,907.935 M505.524,904.935c-5.238,0-9.5,4.263-9.5,9.5c0,5.238,4.262,9.5,9.5,9.5
		s9.5-4.262,9.5-9.5C515.024,909.197,510.763,904.935,505.524,904.935L505.524,904.935z"/>
</g>
</svg>
