<svg version="1.1" id="Layer_1" xmlns="http://www.w3.org/2000/svg" xmlns:xlink="http://www.w3.org/1999/xlink" x="0px" y="0px"
	 width="1920px" height="1080px" viewBox="0 0 1920 1080" enable-background="new 0 0 1920 1080" xml:space="preserve">
<g>
	<linearGradient id="SVGID_1_" gradientUnits="userSpaceOnUse" x1="957.0444" y1="1070.2563" x2="959.0444" y2="794.256">
		<stop  offset="0" style="stop-color:#FFFFFF"/>
		<stop  offset="1" style="stop-color:#FFFFFF;stop-opacity:0.7"/>
	</linearGradient>
	<path fill-rule="evenodd" clip-rule="evenodd" fill="url(#SVGID_1_)" d="M1989.78,735.001l-275.689,196.826l-300.619-135.75
		l-302.637,100.378l-302.636-60.227l-302.637,78.389L202.926,776.003L-75.5,788.429V1080h2063.28c0,0,8.101-284.353,5.001-296.997
		C1992.628,782.378,1989.78,735.001,1989.78,735.001z"/>
	<path fill-rule="evenodd" clip-rule="evenodd" fill="none" stroke="#27AE60" stroke-width="3" stroke-miterlimit="10" d="
		M1989.78,735.001l-275.689,196.826l-300.619-135.75l-302.637,100.378l-302.636-60.227l-302.637,78.389L202.926,776.003
		L-75.5,788.429"/>
</g>
<g>
	<path fill-rule="evenodd" clip-rule="evenodd" fill="#FFFFFF" d="M808.051,844.059c-4.411,0-8-3.589-8-8s3.589-8,8-8s8,3.589,8,8
		S812.462,844.059,808.051,844.059z"/>
	<path fill="#27AE60" d="M808.051,829.559c3.59,0,6.5,2.91,6.5,6.5s-2.91,6.5-6.5,6.5s-6.5-2.91-6.5-6.5
		S804.461,829.559,808.051,829.559 M808.051,826.559c-5.238,0-9.5,4.262-9.5,9.5s4.262,9.5,9.5,9.5s9.5-4.262,9.5-9.5
		S813.29,826.559,808.051,826.559L808.051,826.559z"/>
</g>
<g>
	<path fill-rule="evenodd" clip-rule="evenodd" fill="#FFFFFF" d="M1110.676,904.232c-4.411,0-8-3.589-8-8s3.589-8,8-8s8,3.589,8,8
		S1115.087,904.232,1110.676,904.232z"/>
	<path fill="#27AE60" d="M1110.676,889.732c3.59,0,6.5,2.91,6.5,6.5s-2.91,6.5-6.5,6.5s-6.5-2.91-6.5-6.5
		S1107.086,889.732,1110.676,889.732 M1110.676,886.732c-5.238,0-9.5,4.262-9.5,9.5s4.262,9.5,9.5,9.5s9.5-4.262,9.5-9.5
		S1115.914,886.732,1110.676,886.732L1110.676,886.732z"/>
</g>
<g>
	<path fill-rule="evenodd" clip-rule="evenodd" fill="#FFFFFF" d="M1413.667,804.007c-4.411,0-8-3.589-8-8s3.589-8,8-8s8,3.589,8,8
		S1418.078,804.007,1413.667,804.007z"/>
	<path fill="#27AE60" d="M1413.667,789.507c3.59,0,6.5,2.91,6.5,6.5s-2.91,6.5-6.5,6.5s-6.5-2.91-6.5-6.5
		S1410.077,789.507,1413.667,789.507 M1413.667,786.507c-5.238,0-9.5,4.262-9.5,9.5s4.262,9.5,9.5,9.5s9.5-4.262,9.5-9.5
		S1418.905,786.507,1413.667,786.507L1413.667,786.507z"/>
</g>
<g>
	<path fill-rule="evenodd" clip-rule="evenodd" fill="#FFFFFF" d="M1713.938,939.828c-4.411,0-8-3.589-8-8s3.589-8,8-8s8,3.589,8,8
		S1718.35,939.828,1713.938,939.828z"/>
	<path fill="#27AE60" d="M1713.938,925.328c3.59,0,6.5,2.91,6.5,6.5s-2.91,6.5-6.5,6.5s-6.5-2.91-6.5-6.5
		S1710.349,925.328,1713.938,925.328 M1713.938,922.328c-5.238,0-9.5,4.262-9.5,9.5s4.262,9.5,9.5,9.5s9.5-4.262,9.5-9.5
		S1719.177,922.328,1713.938,922.328L1713.938,922.328z"/>
</g>
<g>
	<path fill-rule="evenodd" clip-rule="evenodd" fill="#FFFFFF" d="M202.76,783.808c-4.411,0-8-3.589-8-8s3.589-8,8-8s8,3.589,8,8
		S207.171,783.808,202.76,783.808z"/>
	<path fill="#27AE60" d="M202.76,769.308c3.59,0,6.5,2.91,6.5,6.5s-2.91,6.5-6.5,6.5s-6.5-2.91-6.5-6.5
		S199.17,769.308,202.76,769.308 M202.76,766.308c-5.238,0-9.5,4.262-9.5,9.5s4.262,9.5,9.5,9.5s9.5-4.262,9.5-9.5
		S207.998,766.308,202.76,766.308L202.76,766.308z"/>
</g>
<g>
	<path fill-rule="evenodd" clip-rule="evenodd" fill="#FFFFFF" d="M505.524,922.435c-4.411,0-8-3.589-8-8s3.589-8,8-8s8,3.589,8,8
		S509.936,922.435,505.524,922.435z"/>
	<path fill="#27AE60" d="M505.524,907.935c3.59,0,6.5,2.91,6.5,6.5s-2.91,6.5-6.5,6.5s-6.5-2.91-6.5-6.5
		S501.935,907.935,505.524,907.935 M505.524,904.935c-5.238,0-9.5,4.262-9.5,9.5s4.262,9.5,9.5,9.5s9.5-4.262,9.5-9.5
		S510.763,904.935,505.524,904.935L505.524,904.935z"/>
</g>
</svg>
